<svg width="220" height="180" viewBox="0 0 220 180" fill="none" xmlns="http://www.w3.org/2000/svg">
  <rect width="220" height="180" rx="18" fill="transparent"/>
  <g fill="#ffffff">
    <path d="M109.5 23c-17.8 0-32.2 14.2-32.2 31.8 0 6.3 1.9 12.3 5.3 17.3-14.7 5.9-25.1 20.1-25.1 36.7 0 21.9 17.9 39.7 40 39.7 10.2 0 19.5-3.8 26.6-10.1 7.2 6.3 16.6 10.1 26.8 10.1 22.1 0 40-17.8 40-39.7 0-16.4-10.3-30.6-24.8-36.6 3.4-5.1 5.4-11.1 5.4-17.4 0-17.6-14.5-31.8-32.4-31.8-11.3 0-21.4 5.7-27.4 14.4-5.9-8.7-16.1-14.4-27.2-14.4Zm0 15.2c10.3 0 18.6 8.2 18.6 18.4 0 10.1-8.3 18.4-18.6 18.4-10.2 0-18.6-8.3-18.6-18.4 0-10.2 8.4-18.4 18.6-18.4Zm-26.9 49.7c10.2 0 18.6 8.3 18.6 18.4 0 10.2-8.4 18.4-18.6 18.4-10.3 0-18.6-8.2-18.6-18.4 0-10.1 8.3-18.4 18.6-18.4Zm53.8 0c10.2 0 18.6 8.3 18.6 18.4 0 10.2-8.4 18.4-18.6 18.4-10.3 0-18.6-8.2-18.6-18.4 0-10.1 8.3-18.4 18.6-18.4Z"/>
    <path d="M110 92c8.5 0 15.4 6.8 15.4 15.2 0 8.4-6.9 15.1-15.4 15.1s-15.4-6.7-15.4-15.1c0-8.4 6.9-15.2 15.4-15.2Z"/>
  </g>
  <text x="110" y="165" text-anchor="middle" fill="#ffffff" font-size="26" font-family="Arial, sans-serif" font-weight="700">وزارة التعليم</text>
</svg>
